<svg height="479pt" viewBox="0 -31 479.82311 479" width="479pt" xmlns="http://www.w3.org/2000/svg"><path d="m411.199219 114.574219c-17.566407-66.988281-77.945313-113.820313-147.199219-114.160157-60.09375-.195312-114.589844 35.238282-138.800781 90.238282-6.964844-1.496094-14.074219-2.246094-21.199219-2.238282-57.4375 0-104 46.5625-104 104s46.5625 104 104 104c4.417969 0 8-3.582031 8-8 0-4.421874-3.582031-8-8-8-48.601562 0-88-39.402343-88-88 0-48.601562 39.398438-88 88-88 8.117188-.007812 16.195312 1.125 24 3.359376 3.984375 1.148437 8.183594-.933594 9.679688-4.800782 20.132812-52.214844 70.355468-86.632812 126.320312-86.558594 63.742188.3125 118.820312 44.605469 132.800781 106.796876.714844 3.207031 3.316407 5.648437 6.558594 6.160156 26.679687 3.066406 49.4375 20.726562 59.03125 45.808594 9.59375 25.085937 4.429687 53.421874-13.394531 73.511718-17.828125 20.085938-45.347656 28.582032-71.394532 22.039063-4.417968-.882813-8.71875 1.984375-9.601562 6.402343-.882812 4.417969 1.980469 8.714844 6.398438 9.597657 5.792968 1.167969 11.691406 1.734375 17.601562 1.683593 44.792969-.089843 82.375-33.816406 87.292969-78.339843 4.914062-44.523438-24.398438-85.636719-68.09375-95.5zm0 0"/><path d="m344 144.414062h-144c-2.113281-.035156-4.15625.769532-5.679688 2.238282l-64 64c-1.519531 1.527344-2.355468 3.605468-2.320312 5.761718v192c0 4.417969 3.582031 8 8 8h208c4.417969 0 8-3.582031 8-8v-39.363281c0-4.417969-3.582031-8-8-8s-8 3.582031-8 8v31.363281h-192v-176h56c4.417969 0 8-3.582031 8-8v-56h128v177.359376c0 4.417968 3.582031 8 8 8s8-3.582032 8-8v-185.359376c0-4.421874-3.582031-8-8-8zm-152 64h-36.71875l36.71875-36.722656zm0 0"/><path d="m296 224.414062h-56c-4.417969 0-8 3.578126-8 8 0 4.417969 3.582031 8 8 8h56c4.417969 0 8-3.582031 8-8 0-4.421874-3.582031-8-8-8zm0 0"/><path d="m296 264.414062h-112c-4.417969 0-8 3.578126-8 8 0 4.417969 3.582031 8 8 8h112c4.417969 0 8-3.582031 8-8 0-4.421874-3.582031-8-8-8zm0 0"/><path d="m296 304.414062h-112c-4.417969 0-8 3.578126-8 8 0 4.417969 3.582031 8 8 8h112c4.417969 0 8-3.582031 8-8 0-4.421874-3.582031-8-8-8zm0 0"/><path d="m296 344.414062h-112c-4.417969 0-8 3.578126-8 8 0 4.417969 3.582031 8 8 8h112c4.417969 0 8-3.582031 8-8 0-4.421874-3.582031-8-8-8zm0 0"/><path d="m264 112.414062c4.417969 0 8-3.582031 8-8v-28.722656l10.320312 10.402344c1.5 1.511719 3.546876 2.363281 5.679688 2.363281s4.179688-.851562 5.679688-2.363281c1.515624-1.503906 2.367187-3.546875 2.367187-5.679688 0-2.136718-.851563-4.179687-2.367187-5.683593l-24-24c-1.5-1.511719-3.546876-2.363281-5.679688-2.363281s-4.179688.851562-5.679688 2.363281l-24 24c-3.136718 3.140625-3.136718 8.226562 0 11.363281 3.136719 3.136719 8.222657 3.136719 11.359376 0l10.320312-10.402344v28.722656c0 4.417969 3.582031 8 8 8zm0 0"/><path d="m200 104.414062v-16c0-4.421874-3.582031-8-8-8s-8 3.578126-8 8v16c0 4.417969 3.582031 8 8 8s8-3.582031 8-8zm0 0"/><path d="m408 208.414062v-32c0-4.421874-3.582031-8-8-8s-8 3.578126-8 8v32c0 4.417969 3.582031 8 8 8s8-3.582031 8-8zm0 0"/><path d="m88 152.414062v48c0 4.417969 3.582031 8 8 8s8-3.582031 8-8v-48c0-4.421874-3.582031-8-8-8s-8 3.578126-8 8zm0 0"/></svg>