<?xml version="1.0" encoding="utf-8"?>
<!-- Generator: Adobe Illustrator 22.0.1, SVG Export Plug-In . SVG Version: 6.00 Build 0)  -->
<svg version="1.1" id="Layer_1" xmlns="http://www.w3.org/2000/svg" xmlns:xlink="http://www.w3.org/1999/xlink" x="0px" y="0px"
	 viewBox="0 0 394 420" style="enable-background:new 0 0 394 420;" xml:space="preserve">
<style type="text/css">
	.st0{fill:#464646;}
</style>
<g>
	<path class="st0" d="M289,19.7c7.7,1.3,15.6,2.1,23.2,3.8c20.4,4.7,39.4,12.6,55.7,26.1c1.2,1,2.2,3.1,2.2,4.6
		c0.1,75.6,0.1,151.2,0.1,226.8c0,0.9-0.1,1.7-0.2,3.4c-2.4-2-4.4-3.6-6.3-5.2c-11.5-9.4-22.4-19.5-36.5-25.2
		c-18.6-7.5-37.7-11.8-57.8-9.3c-14.5,1.8-27.8,7.7-41,13.7c-16.7,7.5-33.3,15.4-50,22.8c-32.1,14.2-64.8,13.3-97.7,2.8
		c-6-1.9-11.9-4.2-18.2-6.4c-0.1,1.3-0.2,2.4-0.2,3.5c0,39.9,0,79.7,0,119.6c0,1,0.2,2,0.3,3c-10,0-20,0-30,0
		c-0.1-1.5-0.3-3-0.3-4.5c0-124.9,0-249.8,0-374.6c0-1.6,0.2-3.2,0.3-4.8c9.7,0,19.5,0,29.2,0c0.2,1.3,0.4,2.7,0.4,4
		c0,7.5,0.1,15,0,22.5c-0.1,2.5,0.8,4,3.1,4.8C75,54.8,84.6,59.2,94.6,62c23.1,6.7,46.3,7.5,69-2c11-4.6,21.9-9.7,32.9-14.3
		C213.3,38.6,230,31.4,247,25c7.4-2.8,15.5-3.6,23.2-5.3C276.5,19.7,282.7,19.7,289,19.7z M63.3,83.7c-0.1,0.6-0.3,0.9-0.3,1.3
		c0,52.3,0,104.7,0.1,157c0,1.2,1.3,3,2.4,3.5c9.1,3.8,18.1,8,27.4,10.9c25.9,8,51.6,7.9,76.7-3.9c11.7-5.5,23.6-10.7,35.4-16.2
		c17.3-8.1,34.6-16.2,53.5-20c26.7-5.3,52.4-0.7,77.4,9c1.3,0.5,2.7,1,4.2,1.7c0.1-1.3,0.2-2,0.2-2.7c0-51.6,0-103.2,0.1-154.8
		c0-2.2-0.8-3.4-2.7-4.3c-30.3-15.8-61.5-21.2-94-7.4c-19.6,8.3-39.1,17.1-58.4,26c-31.7,14.7-64.3,17.2-97.8,7.5
		C79.4,88.9,71.5,86.2,63.3,83.7z"/>
</g>
</svg>
