<svg height="512" viewBox="0 0 64 64" width="512" xmlns="http://www.w3.org/2000/svg"><path d="m48 26h-1v-19a5 5 0 0 0 -5-5h-20a5 5 0 0 0 -5 5h-3a1 1 0 0 0 -1 1v6a1 1 0 0 0 1 1h3v11h-1a1 1 0 0 0 -1 1v5a1 1 0 0 0 1 1v3a12.982 12.982 0 0 0 5.53 10.62l-2.51 14.21a.948.948 0 0 0 .21.81.992.992 0 0 0 .77.36h24a.992.992 0 0 0 .77-.36.948.948 0 0 0 .21-.81l-2.51-14.21a12.982 12.982 0 0 0 5.53-10.62v-3a1 1 0 0 0 1-1v-5a1 1 0 0 0 -1-1zm-29-19a3.009 3.009 0 0 1 3-3h20a3.009 3.009 0 0 1 3 3v3h-26zm0 5h26v14h-26zm-4 1v-4h2v4zm27.81 47h-21.62l2.18-12.3a12.938 12.938 0 0 0 5.63 1.3h6a12.938 12.938 0 0 0 5.63-1.3zm3.19-24a11.007 11.007 0 0 1 -11 11h-6a11.007 11.007 0 0 1 -11-11v-3h28zm1-5h-30v-3h30z"/></svg>