<?xml version="1.0"?>
<svg xmlns="http://www.w3.org/2000/svg" id="Layer_2" height="512px" viewBox="0 0 128 128" width="512px" data-name="Layer 2" class=""><g><path d="m23.77 41.556a26.272 26.272 0 0 0 2.73 11.694 1.733 1.733 0 0 0 .284.554 26.42 26.42 0 0 0 46.881-.081 1.743 1.743 0 0 0 .178-.348 26.351 26.351 0 0 0 0-23.638 1.743 1.743 0 0 0 -.178-.348 26.42 26.42 0 0 0 -46.881-.081 1.733 1.733 0 0 0 -.284.554 26.272 26.272 0 0 0 -2.73 11.694zm26.438-22.939c2.623 0 5.431 3.791 7.14 10h-14.28c1.709-6.208 4.517-10 7.14-10zm7.935 13.5a51.841 51.841 0 0 1 .778 7.686h-17.421a51.841 51.841 0 0 1 .778-7.686zm12.965 18.875h-9.4a56.436 56.436 0 0 0 .72-7.686h10.646a22.756 22.756 0 0 1 -1.966 7.686zm-20.9 13.5c-2.623 0-5.431-3.791-7.14-10h14.28c-1.709 6.208-4.517 10.008-7.14 10.008zm-7.935-13.5a51.841 51.841 0 0 1 -.778-7.686h17.426a51.841 51.841 0 0 1 -.778 7.686zm-14.93-7.686h10.642a56.436 56.436 0 0 0 .72 7.686h-9.4a22.756 22.756 0 0 1 -1.962-7.686zm45.731-3.5h-10.643a56.436 56.436 0 0 0 -.72-7.686h9.4a22.756 22.756 0 0 1 1.963 7.686zm-35.089 0h-10.642a22.756 22.756 0 0 1 1.966-7.686h9.4a56.436 56.436 0 0 0 -.724 7.686zm-6.707 14.686h8.148a28.206 28.206 0 0 0 3.674 8.872 23.037 23.037 0 0 1 -11.822-8.872zm26.034 8.872a28.207 28.207 0 0 0 3.679-8.872h8.148a23.039 23.039 0 0 1 -11.827 8.872zm11.827-34.744h-8.148a28.207 28.207 0 0 0 -3.679-8.872 23.039 23.039 0 0 1 11.827 8.872zm-26.039-8.871a28.206 28.206 0 0 0 -3.679 8.872h-8.143a23.037 23.037 0 0 1 11.822-8.872z" data-original="#000000" class="active-path" data-old_color="#000000" fill="#4E4E4E"/><path d="m81.042 78.6h-61.667a1.75 1.75 0 0 0 -1.75 1.75v6.518a1.75 1.75 0 0 0 1.75 1.75h61.667a1.75 1.75 0 0 0 1.75-1.75v-6.523a1.75 1.75 0 0 0 -1.75-1.745zm-1.75 6.518h-58.167v-3.018h58.167z" data-original="#000000" class="active-path" data-old_color="#000000" fill="#4E4E4E"/><path d="m70.375 93.68h-40.333a1.75 1.75 0 0 0 -1.75 1.75v6.518a1.75 1.75 0 0 0 1.75 1.75h40.333a1.75 1.75 0 0 0 1.75-1.75v-6.518a1.75 1.75 0 0 0 -1.75-1.75zm-1.75 6.518h-36.833v-3.018h36.833z" data-original="#000000" class="active-path" data-old_color="#000000" fill="#4E4E4E"/><path d="m115.875 29.167h-21.833v-23.417a5.756 5.756 0 0 0 -5.75-5.75h-76.167a5.756 5.756 0 0 0 -5.75 5.75v116.5a5.756 5.756 0 0 0 5.75 5.75h76.167a5.756 5.756 0 0 0 5.75-5.75v-23.417h21.833a5.756 5.756 0 0 0 5.75-5.75v-58.166a5.756 5.756 0 0 0 -5.75-5.75zm-21.833 16.45h.684a8.316 8.316 0 1 1 0 16.633h-.684zm0 32.466h16.541v6.167h-16.541zm-3.5 44.167a2.253 2.253 0 0 1 -2.25 2.25h-76.167a2.253 2.253 0 0 1 -2.25-2.25v-116.5a2.253 2.253 0 0 1 2.25-2.25h76.167a2.253 2.253 0 0 1 2.25 2.25zm27.583-29.167a2.253 2.253 0 0 1 -2.25 2.25h-21.833v-7.583h18.291a1.75 1.75 0 0 0 1.75-1.75v-9.667a1.75 1.75 0 0 0 -1.75-1.75h-18.291v-8.833h.684a11.816 11.816 0 1 0 0-23.633h-.684v-9.45h21.833a2.253 2.253 0 0 1 2.25 2.25z" data-original="#000000" class="active-path" data-old_color="#000000" fill="#4E4E4E"/></g> </svg>
