<?xml version="1.0"?>
<svg xmlns="http://www.w3.org/2000/svg" height="512px" viewBox="0 -35 512 512" width="512px" class=""><g><path d="m488.316406 202.519531c-2.382812-3.457031-7.117187-4.332031-10.578125-1.949219-3.457031 2.382813-4.328125 7.117188-1.949219 10.574219 13.742188 19.949219 21.003907 42.832031 21.003907 66.175781 0 33.613282-14.839844 65.480469-41.785157 89.730469-1.605468 1.441407-2.519531 3.496094-2.519531 5.652344v53.066406c0 .097657 0 .277344-.226562.425781-.226563.152344-.390625.078126-.480469.042969l-57.042969-24.425781c-1.542969-.660156-3.257812-.792969-4.886719-.375-13.789062 3.546875-28.117187 5.34375-42.59375 5.34375-82.453124 0-149.535156-58.078125-149.535156-129.460938 0-71.386718 67.082032-129.464843 149.535156-129.464843 40.261719 0 78.03125 13.667969 106.351563 38.480469 3.15625 2.765624 7.960937 2.449218 10.730469-.707032 2.765625-3.160156 2.449218-7.964844-.710938-10.730468-31.09375-27.246094-72.421875-42.246094-116.371094-42.246094-6.171874 0-12.265624.308594-18.265624.894531-3.054688-35.402344-20.605469-68.234375-49.90625-93.042969-30.847657-26.121094-71.457032-40.503906-114.347657-40.503906-90.835937 0-164.738281 64.898438-164.738281 144.667969 0 36.914062 15.703125 71.84375 44.304688 98.71875v49.734375c0 5.296875 2.640624 10.199218 7.058593 13.117187 4.835938 2.949219 9.78125 3.390625 14.839844 1.328125l54.691406-23.417968c10.242188 2.476562 20.792969 4.082031 31.402344 4.78125 4.1875.285156 7.8125-2.898438 8.085937-7.089844.277344-4.1875-2.894531-7.808594-7.085937-8.085938-10.550781-.695312-21.03125-2.363281-31.152344-4.964844-1.625-.417968-3.34375-.285156-4.886719.375l-57.042968 24.421876c-.085938.039062-.25.109374-.476563-.042969-.230469-.148438-.230469-.328125-.230469-.421875v-53.070313c0-2.15625-.914062-4.210937-2.515624-5.652343-26.945313-24.246094-41.785157-56.113282-41.785157-89.730469 0-71.386719 67.078125-129.460938 149.535157-129.460938 79.359374 0 143.820312 52.507813 149.164062 120.425781-74.902344 13.578126-131.386719 71.949219-131.386719 141.6875 0 79.769532 73.902344 144.667969 164.738281 144.667969 14.867188 0 29.605469-1.742187 43.847657-5.1875l54.691406 23.417969c5.058594 2.0625 10.003906 1.617188 14.839844-1.328125 4.417969-2.917969 7.058593-7.820313 7.058593-13.117187v-49.734376c28.601563-26.875 44.304688-61.804687 44.304688-98.71875 0-26.4375-8.191406-52.304687-23.683594-74.800781zm0 0" data-original="#000000" class="active-path" data-old_color="#000000" fill="#FFFFFF"/><path d="m422.519531 239.464844v-16.042969c0-8.667969-7.050781-15.714844-15.714843-15.714844h-126.597657c-8.664062 0-15.710937 7.046875-15.710937 15.714844v16.042969c0 7.757812 5.652344 14.203125 13.054687 15.472656-7.402343 1.269531-13.054687 7.714844-13.054687 15.472656v16.042969c0 7.757813 5.65625 14.203125 13.054687 15.472656-7.398437 1.265625-13.054687 7.714844-13.054687 15.46875v16.046875c0 8.664063 7.046875 15.714844 15.710937 15.714844h126.597657c8.664062 0 15.714843-7.050781 15.714843-15.714844v-16.046875c0-7.753906-5.65625-14.203125-13.058593-15.46875 7.402343-1.269531 13.058593-7.714843 13.058593-15.472656v-16.042969c0-7.757812-5.65625-14.203125-13.054687-15.472656 7.398437-1.269531 13.054687-7.714844 13.054687-15.472656zm-142.816406-16.042969c0-.28125.226563-.507813.503906-.507813h126.597657c.28125 0 .507812.226563.507812.507813v16.042969c0 .28125-.226562.507812-.507812.507812h-126.597657c-.277343 0-.503906-.226562-.503906-.507812zm127.101563 46.480469c.28125 0 .507812.226562.507812.503906v16.046875c0 .28125-.226562.507813-.507812.507813h-126.597657c-.277343 0-.503906-.226563-.503906-.507813v-16.046875c0-.277344.226563-.503906.503906-.503906zm.507812 63.539062c0 .277344-.226562.507813-.507812.507813h-126.597657c-.277343 0-.503906-.230469-.503906-.507813v-16.046875c0-.277343.226563-.507812.503906-.507812h126.597657c.28125 0 .507812.230469.507812.507812zm0 0" data-original="#000000" class="active-path" data-old_color="#000000" fill="#FFFFFF"/><path d="m71.207031 96.726562h85.242188c4.199219 0 7.605469-3.402343 7.605469-7.601562s-3.40625-7.601562-7.605469-7.601562h-85.242188c-4.199219 0-7.601562 3.402343-7.601562 7.601562s3.402343 7.601562 7.601562 7.601562zm0 0" data-original="#000000" class="active-path" data-old_color="#000000" fill="#FFFFFF"/><path d="m233.117188 124.324219c0-4.199219-3.40625-7.605469-7.605469-7.605469h-154.304688c-4.199219 0-7.601562 3.40625-7.601562 7.605469s3.402343 7.601562 7.601562 7.601562h154.308594c4.195313 0 7.601563-3.402343 7.601563-7.601562zm0 0" data-original="#000000" class="active-path" data-old_color="#000000" fill="#FFFFFF"/><path d="m134 159.523438c0-4.199219-3.40625-7.605469-7.605469-7.605469h-55.1875c-4.199219 0-7.601562 3.40625-7.601562 7.605469 0 4.199218 3.402343 7.601562 7.601562 7.601562h55.1875c4.199219 0 7.605469-3.402344 7.605469-7.601562zm0 0" data-original="#000000" class="active-path" data-old_color="#000000" fill="#FFFFFF"/><path d="m80.332031 204.980469c0 4.480469-3.628906 8.113281-8.109375 8.113281-4.480468 0-8.109375-3.632812-8.109375-8.113281 0-4.476563 3.628907-8.109375 8.109375-8.109375 4.480469 0 8.109375 3.632812 8.109375 8.109375zm0 0" data-original="#000000" class="active-path" data-old_color="#000000" fill="#FFFFFF"/><path d="m108.375 204.980469c0 4.480469-3.632812 8.113281-8.109375 8.113281-4.480469 0-8.113281-3.632812-8.113281-8.113281 0-4.476563 3.632812-8.109375 8.113281-8.109375 4.476563 0 8.109375 3.632812 8.109375 8.109375zm0 0" data-original="#000000" class="active-path" data-old_color="#000000" fill="#FFFFFF"/><path d="m136.417969 204.980469c0 4.480469-3.628907 8.113281-8.109375 8.113281-4.480469 0-8.109375-3.632812-8.109375-8.113281 0-4.476563 3.628906-8.109375 8.109375-8.109375 4.480468 0 8.109375 3.632812 8.109375 8.109375zm0 0" data-original="#000000" class="active-path" data-old_color="#000000" fill="#FFFFFF"/></g> </svg>
