<?xml version="1.0" encoding="iso-8859-1"?>
<!-- Generator: Adobe Illustrator 19.0.0, SVG Export Plug-In . SVG Version: 6.00 Build 0)  -->
<svg version="1.1" id="Capa_1" xmlns="http://www.w3.org/2000/svg" xmlns:xlink="http://www.w3.org/1999/xlink" x="0px" y="0px"
	 viewBox="0 0 512 512" style="enable-background:new 0 0 512 512;" xml:space="preserve">
<g>
	<g>
		<path d="M437.565,149.059H74.435c-5.523,0-10,4.477-10,10v244.634c0,5.523,4.477,10,10,10h363.13c5.522,0,10-4.477,10-10V159.059
			C447.565,153.536,443.087,149.059,437.565,149.059z M204.212,393.693C204.791,365.63,227.8,342.98,256,342.98
			c28.199,0,51.208,22.65,51.788,50.713H204.212z M385.859,393.693H327.79c-0.583-39.092-32.563-70.713-71.79-70.713
			c-39.228,0-71.208,31.622-71.791,70.713h-58.066v-11.944l26.372-6.164c3.575-0.836,6.405-3.563,7.371-7.105
			c2.199-8.058,5.414-15.817,9.556-23.062c1.823-3.188,1.751-7.119-0.187-10.239l-14.291-23.009l18.427-18.427l23.01,14.29
			c3.12,1.939,7.052,2.009,10.238,0.187c7.246-4.142,15.005-7.356,23.063-9.556c3.542-0.966,6.269-3.796,7.105-7.371l6.163-26.372
			h26.061l6.164,26.372c0.835,3.575,3.563,6.405,7.104,7.371c8.057,2.199,15.816,5.414,23.064,9.556
			c3.186,1.821,7.118,1.751,10.238-0.188l23.009-14.29l18.428,18.427l-14.292,23.009c-1.938,3.12-2.009,7.051-0.186,10.239
			c4.143,7.247,7.357,15.006,9.556,23.063c0.967,3.542,3.797,6.269,7.371,7.105l26.372,6.164V393.693z M427.564,219H154.307
			c-5.523,0-10,4.477-10,10s4.477,10,10,10h273.257v154.693h-21.707v-19.876c0-4.646-3.2-8.68-7.724-9.738l-28.464-6.653
			c-1.872-5.701-4.174-11.256-6.882-16.609l15.424-24.832c2.451-3.947,1.861-9.062-1.424-12.348l-29.645-29.645
			c-3.286-3.285-8.401-3.875-12.348-1.423l-24.832,15.423c-5.353-2.708-10.908-5.01-16.61-6.882l-6.653-28.463
			c-1.058-4.524-5.091-7.724-9.737-7.724h-41.924c-4.646,0-8.68,3.2-9.737,7.724l-6.653,28.463
			c-5.702,1.872-11.257,4.173-16.61,6.882l-24.833-15.424c-3.946-2.45-9.061-1.86-12.347,1.424l-29.645,29.645
			c-3.285,3.286-3.875,8.401-1.423,12.348l15.423,24.832c-2.708,5.353-5.01,10.909-6.882,16.61l-28.463,6.652
			c-4.524,1.058-7.724,5.092-7.724,9.738v19.876H84.435v-191.57h273.258c5.522,0,10-4.477,10-10s-4.478-10-10-10H84.435v-13.064
			h343.129V219z"/>
	</g>
</g>
<g>
	<g>
		<path d="M502,433.693h-14.435V145.312c0-19.99-16.263-36.253-36.253-36.253H60.688c-19.99,0-36.253,16.263-36.253,36.253v288.381
			H10c-5.523,0-10,4.477-10,10V477.5C0,496.523,15.477,512,34.5,512h443c19.023,0,34.5-15.477,34.5-34.5v-33.807
			C512,438.17,507.522,433.693,502,433.693z M44.435,145.312c0-8.962,7.291-16.253,16.253-16.253h390.624
			c8.962,0,16.253,7.291,16.253,16.253v288.381H325c-5.522,0-10,4.477-10,10V451H197v-7.307c0-5.523-4.477-10-10-10H44.435V145.312z
			 M492,477.5c0,7.995-6.505,14.5-14.5,14.5h-443c-7.996,0-14.5-6.505-14.5-14.5v-23.807h157V461c0,5.523,4.477,10,10,10h138
			c5.522,0,10-4.477,10-10v-7.307h157V477.5z"/>
	</g>
</g>
<g>
	<g>
		<path d="M406.109,190.17c-0.13-0.64-0.319-1.27-0.569-1.87c-0.25-0.61-0.561-1.19-0.92-1.73c-0.37-0.55-0.78-1.06-1.25-1.52
			c-0.46-0.46-0.971-0.88-1.52-1.24c-0.54-0.36-1.12-0.671-1.72-0.921c-0.61-0.25-1.23-0.44-1.87-0.57c-1.29-0.26-2.62-0.26-3.91,0
			c-0.64,0.13-1.27,0.32-1.87,0.57c-0.6,0.25-1.189,0.56-1.729,0.921c-0.55,0.36-1.06,0.78-1.521,1.24
			c-0.46,0.46-0.88,0.97-1.239,1.52c-0.36,0.54-0.671,1.12-0.921,1.73c-0.25,0.6-0.439,1.23-0.569,1.87s-0.2,1.3-0.2,1.95
			c0,2.64,1.07,5.21,2.93,7.07c0.459,0.46,0.969,0.88,1.519,1.25c0.54,0.36,1.13,0.67,1.729,0.92c0.601,0.25,1.23,0.44,1.87,0.57
			c0.641,0.13,1.3,0.19,1.95,0.19s1.31-0.059,1.96-0.19c0.64-0.13,1.26-0.32,1.87-0.57c0.6-0.25,1.18-0.56,1.72-0.92
			c0.55-0.37,1.061-0.79,1.52-1.25c1.87-1.86,2.93-4.43,2.93-7.07C406.299,191.47,406.239,190.811,406.109,190.17z"/>
	</g>
</g>
<g>
	<g>
		<path d="M125.5,227.05c-0.13-0.64-0.32-1.27-0.57-1.87c-0.25-0.61-0.56-1.19-0.92-1.73c-0.36-0.55-0.78-1.06-1.24-1.52
			c-0.46-0.46-0.97-0.88-1.52-1.24c-0.54-0.36-1.12-0.67-1.73-0.92c-0.6-0.25-1.23-0.44-1.87-0.57c-1.29-0.26-2.62-0.26-3.91,0
			c-0.63,0.13-1.26,0.32-1.87,0.57c-0.6,0.25-1.18,0.56-1.72,0.92c-0.55,0.36-1.06,0.78-1.52,1.24c-0.47,0.46-0.88,0.97-1.25,1.52
			c-0.36,0.54-0.67,1.12-0.92,1.73c-0.25,0.6-0.44,1.23-0.57,1.87c-0.13,0.64-0.19,1.3-0.19,1.95c0,0.65,0.06,1.31,0.19,1.95
			c0.13,0.64,0.32,1.27,0.57,1.87c0.25,0.61,0.56,1.19,0.92,1.73c0.37,0.55,0.78,1.06,1.25,1.52c0.46,0.46,0.97,0.88,1.52,1.24
			c0.54,0.36,1.12,0.67,1.72,0.92c0.61,0.25,1.24,0.45,1.87,0.58c0.65,0.13,1.31,0.19,1.96,0.19c0.65,0,1.31-0.06,1.95-0.19
			c0.64-0.13,1.27-0.33,1.87-0.58c0.6-0.25,1.19-0.56,1.73-0.92c0.55-0.36,1.06-0.78,1.52-1.24c0.46-0.46,0.88-0.97,1.24-1.52
			c0.36-0.54,0.67-1.12,0.92-1.73c0.25-0.6,0.44-1.23,0.57-1.87s0.2-1.3,0.2-1.95C125.7,228.35,125.63,227.69,125.5,227.05z"/>
	</g>
</g>
<g>
	<g>
		<path d="M265.799,86.26c-0.12-0.64-0.32-1.26-0.57-1.87c-0.25-0.6-0.56-1.18-0.92-1.72c-0.359-0.55-0.779-1.06-1.24-1.53
			c-0.46-0.46-0.97-0.87-1.52-1.24c-0.54-0.36-1.12-0.67-1.73-0.92c-0.6-0.25-1.229-0.44-1.869-0.57c-1.28-0.26-2.61-0.26-3.9,0
			c-0.64,0.13-1.27,0.32-1.87,0.57c-0.61,0.25-1.19,0.56-1.73,0.92c-0.55,0.37-1.06,0.78-1.52,1.24c-0.46,0.47-0.88,0.98-1.24,1.53
			c-0.36,0.54-0.67,1.12-0.92,1.72c-0.25,0.61-0.45,1.23-0.57,1.87c-0.13,0.65-0.2,1.31-0.2,1.96c0,0.65,0.07,1.31,0.2,1.95
			c0.12,0.64,0.32,1.27,0.57,1.87c0.25,0.6,0.56,1.19,0.92,1.73c0.36,0.55,0.78,1.06,1.24,1.52c0.46,0.46,0.97,0.88,1.52,1.24
			c0.54,0.36,1.12,0.67,1.73,0.92c0.6,0.25,1.23,0.44,1.87,0.57c0.64,0.13,1.3,0.2,1.95,0.2c0.65,0,1.31-0.07,1.95-0.2
			c0.64-0.13,1.27-0.32,1.869-0.57c0.61-0.25,1.19-0.56,1.73-0.92c0.55-0.36,1.06-0.78,1.52-1.24c0.461-0.46,0.881-0.97,1.24-1.52
			c0.36-0.54,0.67-1.13,0.92-1.73c0.25-0.6,0.45-1.23,0.57-1.87c0.13-0.64,0.2-1.3,0.2-1.95
			C265.999,87.57,265.929,86.91,265.799,86.26z"/>
	</g>
</g>
<g>
	<g>
		<path d="M256,0c-5.523,0-10,4.477-10,10v42.682c0,5.523,4.477,10,10,10c5.522,0,10-4.477,10-10V10C266,4.477,261.522,0,256,0z"/>
	</g>
</g>
<g>
	<g>
		<path d="M221.92,39.995l-14.157-14.157c-3.905-3.905-10.237-3.905-14.143,0c-3.905,3.905-3.905,10.237,0,14.143l14.158,14.157
			c1.953,1.953,4.512,2.929,7.071,2.929s5.119-0.976,7.071-2.929C225.825,50.233,225.825,43.901,221.92,39.995z"/>
	</g>
</g>
<g>
	<g>
		<path d="M318.378,25.837c-3.906-3.905-10.236-3.905-14.143,0l-14.157,14.157c-3.905,3.905-3.905,10.237,0,14.143
			c1.954,1.953,4.513,2.929,7.072,2.929c2.56,0,5.118-0.976,7.071-2.929l14.157-14.157
			C322.283,36.075,322.283,29.743,318.378,25.837z"/>
	</g>
</g>
<g>
	<g>
		<path d="M334.216,78.217h-20.021c-5.522,0-10,4.477-10,10s4.478,10,10,10h20.021c5.522,0,10-4.477,10-10
			S339.738,78.217,334.216,78.217z"/>
	</g>
</g>
<g>
	<g>
		<path d="M197.804,78.217h-20.021c-5.523,0-10,4.477-10,10s4.477,10,10,10h20.021c5.523,0,10-4.477,10-10
			S203.327,78.217,197.804,78.217z"/>
	</g>
</g>
<g>
</g>
<g>
</g>
<g>
</g>
<g>
</g>
<g>
</g>
<g>
</g>
<g>
</g>
<g>
</g>
<g>
</g>
<g>
</g>
<g>
</g>
<g>
</g>
<g>
</g>
<g>
</g>
<g>
</g>
</svg>
