<?xml version="1.0" encoding="iso-8859-1"?>
<!-- Generator: Adobe Illustrator 16.0.0, SVG Export Plug-In . SVG Version: 6.00 Build 0)  -->
<!DOCTYPE svg PUBLIC "-//W3C//DTD SVG 1.1//EN" "http://www.w3.org/Graphics/SVG/1.1/DTD/svg11.dtd">
<svg version="1.1" id="Capa_1" xmlns="http://www.w3.org/2000/svg" xmlns:xlink="http://www.w3.org/1999/xlink" x="0px" y="0px"
	 width="25.664px" height="25.664px" viewBox="0 0 25.664 25.664" style="enable-background:new 0 0 25.664 25.664;"
	 xml:space="preserve">
<g>
	<g>
		<polygon points="18.657,18.161 14.388,18.161 14.194,19.232 18.144,19.232 22.435,24.592 3.229,24.592 7.521,19.232 11.47,19.232 
			11.277,18.161 7.007,18.161 0.999,25.664 24.665,25.664 		"/>
		<path d="M11.374,13.758l1.458,8.155l1.458-8.154c3.141-0.671,5.501-3.457,5.501-6.801C19.791,3.114,16.675,0,12.832,0
			S5.873,3.115,5.873,6.958C5.873,10.301,8.233,13.087,11.374,13.758z M15.081,2.307c1.05,0,1.902,0.852,1.902,1.902
			s-0.854,1.903-1.902,1.903c-1.053,0-1.902-0.852-1.902-1.903C13.179,3.158,14.028,2.307,15.081,2.307z"/>
	</g>
</g>
<g>
</g>
<g>
</g>
<g>
</g>
<g>
</g>
<g>
</g>
<g>
</g>
<g>
</g>
<g>
</g>
<g>
</g>
<g>
</g>
<g>
</g>
<g>
</g>
<g>
</g>
<g>
</g>
<g>
</g>
</svg>
