<?xml version="1.0"?>
<svg xmlns="http://www.w3.org/2000/svg" xmlns:xlink="http://www.w3.org/1999/xlink" version="1.1" id="Layer_1" x="0px" y="0px" viewBox="0 0 508 508" style="enable-background:new 0 0 508 508;" xml:space="preserve" width="512px" height="512px" class=""><g><path style="fill:#EEAF1C" d="M254,6C117.2,6,6,117.2,6,254s111.2,248,248,248s248-111.2,248-248S390.8,6,254,6z" data-original="#DF5C4E" class="" data-old_color="#DF5C4E"/><path style="fill:#F4EFEF" d="M311.6,322c-0.4,0.4-0.8,0.4-1.2,0.4s-1.2,0-1.6-0.4l-7.6-7.6L285.6,330c-0.8,0.8-2,0.8-2.8,0  c-32.8-25.6-80.4-73.2-105.6-105.6c-0.8-0.8-0.4-2,0-2.8l15.6-15.6L170,183.6c-0.8-0.8-0.8-2,0-2.8s2-0.8,2.8,0l24,24l6.4,6.4  l21.2-21.2L160,125.6L138.8,146l5.2,4.4l0,0l0.4,1.2l0.4,0.8l9.2,9.6c0.8,0.8,0.8,2,0,2.8c-0.4,0.4-0.8,0.8-1.2,0.8s-1.2,0-1.6-0.4  l-7.6-7.6c-16.8,27.6-17.2,28-17.2,28c-2.4,2.4-2.8,6-0.8,8.8c43.6,68.8,119.2,144.4,188,188c2.8,1.6,6.4,1.2,8.8-0.8  c0.4-0.4,0.8-0.8,28-17.6l-23.2-23.2c-0.8-0.8-0.8-2,0-2.8s2-0.8,2.8,0l24.8,24.8l0,0l5.6,5.6l21.2-21.2l-64.4-64.4L296,304l6.4,6.4  l0,0l8.8,8.8C312.4,320,312.4,321.2,311.6,322z" data-original="#F4EFEF" class=""/><path d="M317.6,389.2c-2.4,0-4.8-0.8-6.8-2c-69.6-44-146-120.4-190-190c-3.2-5.2-2.4-11.6,1.6-16c1.2-2,10-16.4,16.4-26.8l-4.8-4.8  c-0.8-0.8-1.2-1.6-1.2-2.8c0-1.2,0.4-2,1.2-2.8l24-24c1.6-1.6,4-1.6,5.6,0l67.2,67.2c0.8,0.8,1.2,1.6,1.2,2.8s-0.4,2-1.2,2.8l-24,24  c-0.8,0.8-1.6,1.2-2.8,1.2l0,0c-1.2,0-2-0.4-2.8-1.2l-4.8-4.8l-11.6,11.6c24.8,31.2,68.4,74.8,99.6,99.6l11.6-11.6l-4.8-4.8  c-0.8-0.8-1.2-1.6-1.2-2.8c0-1.2,0.4-2,1.2-2.8l24-24c1.6-1.6,4-1.6,5.6,0l67.2,67.2c1.6,1.6,1.6,4,0,5.6l-24,24  c-1.6,1.6-4,1.6-5.6,0l-4.8-4.8c-10.4,6.4-24.4,15.2-26.4,16.8C324,388,320.8,389.2,317.6,389.2z M142,146.8l4.4,4.4  c1.2,1.2,1.6,3.2,0.4,4.8c-18,30-18.4,30.4-18.8,30.8c-1.6,1.6-2,4.4-0.8,6.4c43.6,68.8,118.8,144,187.6,187.6  c2,1.2,4.8,0.8,6.4-0.8c0.4-0.4,0.8-0.8,30.4-19.2c1.6-0.8,3.6-0.8,4.8,0.4l4.4,4.4l18.4-18.4l-61.6-61.6L299.2,304l4.8,4.8  c0.8,0.8,1.2,1.6,1.2,2.8c0,1.2-0.4,2-1.2,2.8l-17.2,17.2c-1.6,1.6-3.6,1.6-5.2,0.4c-32.8-25.6-80.4-73.2-106-106  c-1.2-1.6-1.2-4,0.4-5.2l16.8-16.8c0.8-0.8,1.6-1.2,2.8-1.2l0,0c1.2,0,2,0.4,2.8,1.2l4.8,4.8l18.4-18.4L160,128.8L142,146.8z" data-original="#000000" class="active-path" style="fill:#EEAF1C" data-old_color="#000000"/><path d="M196,210.4c-1.2,0-2-0.4-2.8-1.2l-24-24c-1.6-1.6-1.6-4,0-5.6s4-1.6,5.6,0l24,24c1.6,1.6,1.6,4,0,5.6  C198,210,196.8,210.4,196,210.4z" data-original="#000000" class="active-path" style="fill:#EEAF1C" data-old_color="#000000"/><path d="M152.8,167.2c-1.2,0-2-0.4-2.8-1.2l-10-10c-1.6-1.6-1.6-4,0-5.6s4-1.6,5.6,0l10,10c1.6,1.6,1.6,4,0,5.6  C154.8,166.8,154,167.2,152.8,167.2z" data-original="#000000" class="active-path" style="fill:#EEAF1C" data-old_color="#000000"/><path d="M310.4,324.8c-1.2,0-2-0.4-2.8-1.2l-9.2-9.2c-1.6-1.6-1.6-4,0-5.6s4-1.6,5.6,0l9.2,9.2c1.6,1.6,1.6,4,0,5.6  C312.4,324.4,311.2,324.8,310.4,324.8z" data-original="#000000" class="active-path" style="fill:#EEAF1C" data-old_color="#000000"/><path d="M353.6,368c-1.2,0-2-0.4-2.8-1.2L326,342c-1.6-1.6-1.6-4,0-5.6s4-1.6,5.6,0l24.8,24.8c1.6,1.6,1.6,4,0,5.6  C355.6,367.6,354.8,368,353.6,368z" data-original="#000000" class="active-path" style="fill:#EEAF1C" data-old_color="#000000"/><path d="M254,508C114,508,0,394,0,254S114,0,254,0s254,114,254,254S394,508,254,508z M254,8C118.4,8,8,118.4,8,254  s110.4,246,246,246s246-110.4,246-246S389.6,8,254,8z" data-original="#000000" class="active-path" style="fill:#EEAF1C" data-old_color="#000000"/></g> </svg>
