<?xml version="1.0" encoding="iso-8859-1"?>
<!-- Generator: Adobe Illustrator 21.0.0, SVG Export Plug-In . SVG Version: 6.00 Build 0)  -->
<svg xmlns="http://www.w3.org/2000/svg" xmlns:xlink="http://www.w3.org/1999/xlink" version="1.1" id="Capa_1" x="0px" y="0px" viewBox="0 0 512 512" style="enable-background:new 0 0 512 512;" xml:space="preserve" width="512" height="512">
<g>
	<g>
		<path d="M274.121,233.184c0-12.776-10.145-49.731-22.74-49.731c-12.606,0-22.74,36.792-22.74,49.731    c0,17.939,7.438,26.66,22.74,26.66S274.121,251.123,274.121,233.184z M243.641,233.184c0-9.216,4.184-21.249,7.74-28.949    c3.557,7.7,7.74,19.733,7.74,28.949c0,11.66-2.587,11.66-7.74,11.66S243.641,244.844,243.641,233.184z"/>
		<path d="M512,340.5c0-12.406-10.094-22.5-22.5-22.5h-9.167c-4.143,0-7.5,3.357-7.5,7.5s3.357,7.5,7.5,7.5h9.167    c4.136,0,7.5,3.364,7.5,7.5s-3.364,7.5-7.5,7.5h-467c-4.136,0-7.5-3.364-7.5-7.5s3.364-7.5,7.5-7.5h196.345    c0.054,0.001,0.109,0.002,0.163,0.002c0.055,0,0.109-0.001,0.164-0.002h160.46c0.1,0.002,0.199,0.002,0.299,0h68.235    c4.143,0,7.5-3.357,7.5-7.5s-3.357-7.5-7.5-7.5H423.5V105.5c0-28.948-23.552-52.5-52.5-52.5h-19.333c-4.143,0-7.5,3.357-7.5,7.5    s3.357,7.5,7.5,7.5H371c20.678,0,37.5,16.822,37.5,37.5V318h-15V105.5c0-12.406-10.094-22.5-22.5-22.5h-90    c-12.406,0-22.5,10.094-22.5,22.5v26.423h-15V105.5c0-20.678,16.822-37.5,37.5-37.5h39c4.143,0,7.5-3.357,7.5-7.5    S324.143,53,320,53h-39c-28.948,0-52.5,23.552-52.5,52.5v26.847c-5.822,1.499-10.137,6.792-10.137,13.076v19.764    c0,7.444,6.056,13.5,13.5,13.5h38.321c7.444,0,13.5-6.056,13.5-13.5v-19.764c0-6.301-4.338-11.606-10.185-13.088V105.5    c0-4.136,3.364-7.5,7.5-7.5h90c4.136,0,7.5,3.364,7.5,7.5v182.511c-13.133-14.385-36.972-23.401-65.98-23.401    c-25.826,0-60.77,2.99-84.583,25.852c-3.574-0.938-7.296-1.797-11.116-2.565c-18.965-3.82-40.801-5.691-68.722-5.888    c-32.805-0.198-78.566,2.121-97.122,24.881c-2.825,3.464-4.313,7.272-4.46,11.109H22.5C10.094,318,0,328.094,0,340.5    c0,12.071,9.556,21.953,21.5,22.478V407.5c0,28.397,23.103,51.5,51.5,51.5h23c4.143,0,7.5-3.357,7.5-7.5s-3.357-7.5-7.5-7.5H73    c-20.126,0-36.5-16.374-36.5-36.5V363h439v44.5c0,20.126-16.374,36.5-36.5,36.5H128.167c-4.143,0-7.5,3.357-7.5,7.5    s3.357,7.5,7.5,7.5H439c28.397,0,51.5-23.103,51.5-51.5v-44.522C502.444,362.453,512,352.571,512,340.5z M268.685,163.687h-35.321    v-16.764h35.321V163.687z M374.54,315.35c0,0.975-0.048,1.852-0.147,2.65H226.446c0.635-1.915,1.679-3.834,2.683-5.422    c17.499-27.674,50.439-32.968,83.391-32.968C347.877,279.61,374.54,294.975,374.54,315.35z M62.603,316.369    c10.725-13.152,39.498-19.663,85.395-19.359c26.934,0.188,47.862,1.966,65.864,5.593c1.142,0.23,2.274,0.469,3.394,0.715    c-2.958,4.486-5.403,9.341-6.177,14.683H61.598C61.756,317.515,62.091,316.997,62.603,316.369z"/>
	</g>
</g>















</svg>
