<svg height="512pt" viewBox="0 -72 512.00101 512" width="512pt" xmlns="http://www.w3.org/2000/svg"><path d="m392.238281 200.351562h16.027344v15.132813h-16.027344zm0 0"/><path d="m424.292969 200.351562h16.027343v15.132813h-16.027343zm0 0"/><path d="m512 112.195312h-103.734375v15.136719h88.597656v32.949219h-240.863281v15.132812h216.824219v13.339844l-16.03125 16.027344v83.722656h-312.988281v15.136719h88.601562v16.917969h-16.476562v15.136718h16.476562v32.054688h47.191406v-32.054688h16.472656v-15.136718h-16.472656v-16.917969h192.332032v-92.589844l16.03125-16.027343v-19.609376h24.039062zm-247.539062 240.417969h-16.921876v-16.917969h16.921876zm-16.921876-32.054687v-16.917969h16.921876v16.917969zm0 0"/><path d="m55.203125 215.484375h288.949219v-15.132813h-293.378906l-11.59375-11.597656v-13.335937h192.777343v-15.136719h-216.820312v-32.949219h369.085937v-15.136719h-96.613281v-24.933593h40.070313v-47.191407h-40.070313v-27.621093l-12.445313-12.449219h-38.328124l-12.445313 12.449219v27.621093h-40.070313v47.191407h40.070313v24.933593h-224.390625v63.222657h24.042969v19.605469l16.027343 16.027343v92.589844h79.691407v-15.136719h-64.558594zm184.324219-196.765625 3.578125-3.582031h25.789062l3.582031 3.582031v21.351562h-32.949218zm-40.070313 36.488281h113.085938v16.917969h-113.085938zm73.015625 32.054688v24.933593h-32.945312v-24.933593zm0 0"/><path d="m360.179688 200.351562h16.03125v15.132813h-16.03125zm0 0"/><path d="m111.75 271.582031h-39.625v-31.609375h15.136719v16.472656h24.488281zm0 0"/></svg>