<svg height="512" viewBox="0 0 64 64" width="512" xmlns="http://www.w3.org/2000/svg"><path d="m31 17h2v2h-2z"/><path d="m27 16h2v2h-2z"/><path d="m35 16h2v2h-2z"/><path d="m61 28h-13v-3a1 1 0 0 0 -1-1v-3a1 1 0 0 0 -1-1v-11a7.008 7.008 0 0 0 -7-7h-1a7.008 7.008 0 0 0 -7 7h-4a1 1 0 0 0 -1 1v4a1 1 0 0 0 1 1h10a1 1 0 0 0 1-1v-4a1 1 0 0 0 -1-1h-4a5 5 0 0 1 5-5h1a5 5 0 0 1 5 5v11h-1a2.006 2.006 0 0 0 -2 2v2h-24a1 1 0 0 0 -1 1v3h-13a1 1 0 0 0 -1 1v26a1 1 0 0 0 1 1h2v5a1 1 0 0 0 1 1h4a1 1 0 0 0 .99-.84l.86-5.16h40.3l.86 5.16a1 1 0 0 0 .99.84h4a1 1 0 0 0 1-1v-5h2a1 1 0 0 0 1-1v-26a1 1 0 0 0 -1-1zm-25-17v2h-8v-2zm7 11h2v2h-2zm-25 9v-5h28v5h-23v2h23a5 5 0 0 1 -5 5h-18a5 5 0 0 1 -5-5h2v-2zm-8.85 29h-2.15v-4h2.82zm21.85-6h-27v-11h27zm0-13h-27v-11h12v3a7.008 7.008 0 0 0 7 7h8zm26 19h-2.15l-.67-4h2.82zm3-6h-27v-11h27zm0-13h-27v-1h8a7.008 7.008 0 0 0 7-7v-3h12z"/><circle cx="26" cy="48" r="2"/><circle cx="38" cy="48" r="2"/></svg>